<?xml version="1.0" encoding="iso-8859-1"?>
<!-- Generator: Adobe Illustrator 19.0.0, SVG Export Plug-In . SVG Version: 6.00 Build 0)  -->
<svg version="1.1" id="Capa_1" xmlns="http://www.w3.org/2000/svg" xmlns:xlink="http://www.w3.org/1999/xlink" x="0px" y="0px"
	 viewBox="0 0 416.2 416.2" style="enable-background:new 0 0 416.2 416.2;" xml:space="preserve">
<path style="fill:#EEEDED;" d="M216.771,2.687c-5.143-3.58-12.199-3.58-17.342,0C166.017,25.941,144.1,64.528,144.1,108.316v147.932
	c0,8.837,7.163,16,16,16h96c8.837,0,16-7.163,16-16V108.316C272.1,64.528,250.183,25.941,216.771,2.687z"/>
<path style="fill:#DFDCDC;" d="M256.1,272.248c8.837,0,16-7.164,16-16V108.316c0-43.787-21.916-82.375-55.329-105.629
	c-2.572-1.79-5.622-2.686-8.671-2.686v272.247H256.1z"/>
<path style="fill:#ECC02F;" d="M240.1,304.248h-64c-9.824,8.784-16,20.208-16,31.952c0,32.048,15.922,47.922,48,80
	c32.07-32.07,48-47.952,48-80C256.1,324.456,249.924,313.032,240.1,304.248z"/>
<g>
	<path style="fill:#115081;" d="M272.1,176.248v80c0,8.837,7.163,16,16,16h48v-18.746c0-8.487-3.371-16.626-9.373-22.627
		L272.1,176.248z"/>
	<path style="fill:#115081;" d="M80.1,253.503v18.745h48c8.837,0,16-7.163,16-16v-80l-54.627,54.627
		C83.471,236.876,80.1,245.016,80.1,253.503z"/>
</g>
<path style="fill:#5C6976;" d="M240.1,272.2h-64l-10.211,20.422c-2.66,5.319,1.208,11.578,7.155,11.578h70.111
	c5.947,0,9.815-6.258,7.155-11.578L240.1,272.2z"/>
<path style="fill:#CB5741;" d="M199.431,2.684c-16.841,11.72-30.735,27.35-40.402,45.563h98.141
	c-9.666-18.213-23.561-33.844-40.402-45.563C211.627-0.895,204.574-0.895,199.431,2.684z"/>
<path style="fill:#E4753B;" d="M192.229,304.248c0,0-12.17,24.152,0.367,42.75c9.377,13.909,15.424,21.138,15.504,21.25
	c0.08-0.111,6.127-7.341,15.504-21.25c12.538-18.598,0.375-42.75,0.375-42.75H192.229z"/>
<path style="fill:#D0CCCC;" d="M208.102,171.248v101H256.1c8.837,0,16-7.164,16-16v-27.285l-57.715-57.715H208.102z"/>
<circle style="fill:#7F8EA0;" cx="208.1" cy="112.271" r="31.832"/>
<circle style="fill:#CDDBED;" cx="208.1" cy="112.271" r="16"/>
<g>
	<path style="fill:#133E68;" d="M128.1,272.248c8.837,0,16-7.164,16-16v-80l-16,16V272.248z"/>
	<path style="fill:#133E68;" d="M272.1,176.248v80c0,8.836,7.163,16,16,16v-80L272.1,176.248z"/>
</g>
<path style="fill:#115081;" d="M208.1,168.247c-4.422,0-8,3.578-8,8v96h16v-96C216.1,171.825,212.522,168.247,208.1,168.247z"/>
<g>
</g>
<g>
</g>
<g>
</g>
<g>
</g>
<g>
</g>
<g>
</g>
<g>
</g>
<g>
</g>
<g>
</g>
<g>
</g>
<g>
</g>
<g>
</g>
<g>
</g>
<g>
</g>
<g>
</g>
</svg>
